<svg width="16" height="16" viewBox="0 0 16 16" fill="none" xmlns="http://www.w3.org/2000/svg">
<path fill-rule="evenodd" clip-rule="evenodd" d="M4.34769 4.34664C4.54296 4.15138 4.85954 4.15138 5.0548 4.34664L11.6545 10.9463C11.8497 11.1416 11.8497 11.4581 11.6545 11.6534C11.4592 11.8487 11.1426 11.8487 10.9474 11.6534L4.34769 5.05375C4.15243 4.85849 4.15243 4.5419 4.34769 4.34664Z" fill="#070707"/>
<path fill-rule="evenodd" clip-rule="evenodd" d="M4.34769 11.6534C4.15243 11.4581 4.15243 11.1415 4.34769 10.9463L10.9474 4.34659C11.1426 4.15133 11.4592 4.15132 11.6545 4.34659C11.8497 4.54185 11.8497 4.85843 11.6545 5.05369L5.0548 11.6534C4.85954 11.8486 4.54296 11.8486 4.34769 11.6534Z" fill="#070707"/>
</svg>
