<svg width="24" height="24" viewBox="0 0 24 24" fill="none" xmlns="http://www.w3.org/2000/svg">
<path d="M20.7 5.01992C20.1974 4.51542 19.6006 4.11522 18.9437 3.84217C18.2868 3.56913 17.5828 3.42859 16.8717 3.42859C16.1607 3.42859 15.4567 3.56913 14.7998 3.84217C14.1429 4.11522 13.5461 4.51542 13.0435 5.01992L12.0003 6.06644L10.9571 5.01992C9.94179 4.00135 8.56472 3.42912 7.12884 3.42912C5.69296 3.42912 4.31589 4.00135 3.30057 5.01992C2.28525 6.03849 1.71484 7.41998 1.71484 8.86046C1.71484 10.3009 2.28525 11.6824 3.30057 12.701L4.34375 13.7475L12.0003 21.4286L19.6568 13.7475L20.7 12.701C21.2029 12.1967 21.6018 11.598 21.874 10.939C22.1462 10.2801 22.2863 9.57376 22.2863 8.86046C22.2863 8.14716 22.1462 7.44084 21.874 6.78187C21.6018 6.1229 21.2029 5.52418 20.7 5.01992Z" fill="#9C9C9C"/>
</svg>
