<svg width="20" height="20" viewBox="0 0 20 20" fill="none" xmlns="http://www.w3.org/2000/svg">
<path d="M16.2936 10.3025C16.3732 10.1099 16.3732 9.89367 16.2936 9.7011C16.2552 9.60562 16.1985 9.5186 16.1266 9.44495L10.5581 3.87648C10.4104 3.7288 10.2101 3.64583 10.0013 3.64583C9.79242 3.64583 9.59211 3.7288 9.44443 3.87648C9.29674 4.02417 9.21378 4.22447 9.21378 4.43333C9.21378 4.64219 9.29674 4.84249 9.44443 4.99018L13.6709 9.21664L4.43281 9.21107C4.32885 9.21065 4.22584 9.23081 4.12971 9.2704C4.03358 9.30998 3.94624 9.36821 3.87273 9.44172C3.79922 9.51523 3.741 9.60257 3.70141 9.6987C3.66182 9.79482 3.64166 9.89784 3.64209 10.0018C3.64166 10.1058 3.66182 10.2088 3.70141 10.3049C3.74099 10.401 3.79922 10.4884 3.87273 10.5619C3.94624 10.6354 4.03358 10.6936 4.12971 10.7332C4.22584 10.7728 4.32885 10.7929 4.43281 10.7925L13.6709 10.7869L9.44443 15.0134C9.29674 15.1611 9.21377 15.3614 9.21377 15.5703C9.21377 15.7791 9.29674 15.9794 9.44443 16.1271C9.59211 16.2748 9.79242 16.3578 10.0013 16.3578C10.2101 16.3578 10.4104 16.2748 10.5581 16.1271L16.1266 10.5586C16.1985 10.485 16.2552 10.398 16.2936 10.3025Z" fill="#181818"/>
</svg>
