<svg width="20" height="20" viewBox="0 0 20 20" fill="none" xmlns="http://www.w3.org/2000/svg">
<path d="M3.70245 9.70141C3.62289 9.89398 3.62289 10.1102 3.70245 10.3028C3.74086 10.3983 3.79762 10.4853 3.8695 10.559L9.43797 16.1274C9.58566 16.2751 9.78596 16.3581 9.99482 16.3581C10.2037 16.3581 10.404 16.2751 10.5517 16.1274C10.6993 15.9797 10.7823 15.7794 10.7823 15.5706C10.7823 15.3617 10.6993 15.1614 10.5517 15.0137L6.3252 10.7873L15.5633 10.7928C15.6672 10.7933 15.7703 10.7731 15.8664 10.7335C15.9625 10.6939 16.0498 10.6357 16.1234 10.5622C16.1969 10.4887 16.2551 10.4013 16.2947 10.3052C16.3343 10.2091 16.3544 10.1061 16.354 10.0021C16.3544 9.89815 16.3343 9.79514 16.2947 9.69901C16.2551 9.60288 16.1969 9.51554 16.1234 9.44203C16.0498 9.36852 15.9625 9.31029 15.8664 9.27071C15.7703 9.23112 15.6672 9.21096 15.5633 9.21139L6.3252 9.21696L10.5517 4.99049C10.6993 4.8428 10.7823 4.6425 10.7823 4.43364C10.7823 4.22478 10.6993 4.02448 10.5517 3.8768C10.404 3.72911 10.2037 3.64614 9.99482 3.64614C9.78596 3.64614 9.58565 3.72911 9.43797 3.8768L3.8695 9.44526C3.79762 9.51891 3.74086 9.60593 3.70245 9.70141Z" fill="#181818"/>
</svg>
