<svg width="139" height="53" viewBox="0 0 139 53" fill="none" xmlns="http://www.w3.org/2000/svg">
<g clip-path="url(#clip0_201_3391)">
<path d="M30.1738 24.8256V24.3374H31.1565V24.8256V35.4936V35.9818H30.1738V35.4936V24.8256Z" fill="#070707"/>
<path d="M44.3314 35.4936L44.3496 35.9999H43.4033L43.3851 35.5117L43.3669 29.2555C43.3669 27.1039 41.7654 25.3138 39.709 25.3138C37.6525 25.3138 36.0511 27.1039 36.0511 29.2555V29.7437V35.4936V35.9818H35.0684V35.4936V29.7437V29.2555V28.7673H35.0866C35.3231 26.254 37.3068 24.3374 39.6908 24.3374C42.2204 24.3374 44.3314 26.5252 44.3314 29.2555V35.4936Z" fill="#070707"/>
<path d="M48.7179 22.3846H48.2266V21.4082H48.7179H48.7543H49.2275V22.3846H48.7543H48.7179Z" fill="#070707"/>
<path d="M30.4816 22.3846H29.9902V21.4082H30.4816H30.4998H30.9911V22.3846H30.4998H30.4816Z" fill="#070707"/>
<path d="M48.2266 24.8256V24.3374H49.2093V24.8256V35.4936V35.9818H48.2266V35.4936V24.8256Z" fill="#070707"/>
<path d="M60.8203 26.7061C61.5118 25.2776 62.8767 24.3374 64.4236 24.3374C66.662 24.3374 68.5182 26.3083 68.5182 28.8758V35.4936L68.5364 35.9999H67.5901L67.5719 35.5117L67.5537 28.8758C67.5537 26.9411 66.1888 25.3138 64.4236 25.3138C62.6583 25.3138 61.2934 26.9411 61.2934 28.8758V29.364V35.4936L61.3116 35.9999H60.3653L60.3471 35.5117C60.3471 33.4685 60.3289 31.4072 60.3289 29.364V28.8758C60.3289 26.9411 58.964 25.3138 57.1988 25.3138C55.4335 25.3138 54.0687 26.9411 54.0687 28.8758V29.364V35.4936V35.9818H53.0859V35.4936V29.364V28.8758V28.3876H53.1041C53.3225 26.0551 55.0878 24.3374 57.1806 24.3374C58.7639 24.3374 60.1287 25.2776 60.8203 26.7061Z" fill="#070707"/>
<path d="M71.4648 30.1596C71.4648 26.905 73.9034 24.3374 76.8334 24.3374C78.635 24.3374 80.2547 25.3138 81.2192 26.8146V24.8256V24.3374H82.202V24.8256V30.1596V35.4936V35.9818H81.2192V35.4936V33.5047C80.2365 35.0054 78.635 35.9818 76.8334 35.9818C73.9034 35.9818 71.4648 33.4143 71.4648 30.1596ZM72.4294 30.1596C72.4294 32.8176 74.3766 35.0054 76.8152 35.0054C79.2538 35.0054 81.201 32.8176 81.201 30.1596C81.201 27.5016 79.2538 25.3138 76.8152 25.3138C74.3766 25.3138 72.4294 27.5016 72.4294 30.1596Z" fill="#070707"/>
<path d="M86.0977 19.4916V19.0034H87.0803V19.4916V35.4936V35.9818H86.0977V35.4936V19.4916Z" fill="#070707"/>
<path d="M107.225 19.4917H107.716V20.4681H107.225H96.9788V27.2486H104.349H104.841V28.225H104.349H96.9788V35.0055H99.381H99.8724V35.9819H99.381H96.4875H95.9961V35.4937V28.225V27.2486V19.9799V19.4917H96.4875H107.225Z" fill="#070707"/>
<path d="M107.225 30.1596C107.225 26.905 109.663 24.3374 112.593 24.3374C114.395 24.3374 116.014 25.3138 116.979 26.8146V24.8256V24.3374H117.962V24.8256V30.1596V35.4936V35.9818H116.979V35.4936V33.5047C115.996 35.0054 114.395 35.9818 112.593 35.9818C109.663 35.9818 107.225 33.4143 107.225 30.1596ZM108.189 30.1596C108.189 32.8176 110.136 35.0054 112.575 35.0054C115.014 35.0054 116.961 32.8176 116.961 30.1596C116.961 27.5016 115.014 25.3138 112.575 25.3138C110.155 25.3138 108.189 27.5016 108.189 30.1596Z" fill="#070707"/>
<path d="M128.863 27.5018V27.99H127.881V27.5018C127.881 26.2361 126.589 25.314 125.424 25.314C124.15 25.314 122.912 26.2361 122.912 27.5018C122.912 28.659 124.223 29.4365 125.369 29.6173C127.025 29.6173 128.863 31.2446 128.863 32.8358C128.863 34.5355 127.134 35.982 125.424 35.982C123.622 35.982 121.93 34.5535 121.93 32.8358V32.3476H122.912V32.8358C122.912 34.0653 124.15 35.0237 125.424 35.0237C126.589 35.0237 127.881 34.0473 127.881 32.8358C127.881 31.6786 126.534 30.5756 125.315 30.5756C123.531 30.3044 121.93 29.0568 121.93 27.5018C121.93 25.7479 123.604 24.3556 125.424 24.3556C127.116 24.3376 128.863 25.7479 128.863 27.5018Z" fill="#070707"/>
<path d="M134.833 25.3139V32.8357V35.4937V35.9819H133.85V35.4937V32.8357V25.3139H133.304H132.812V24.3375H133.304H133.85V21.788V21.2998H134.833V21.788V24.3375H138.509H139V25.3139H138.509H134.833Z" fill="#070707"/>
<path d="M26.5334 35.9638V0L10.0274 24.7715L0.109191 9.8001L0 24.2109L0.564153 24.4641L0.691542 11.4817" fill="#070707"/>
</g>
<defs>
<clipPath id="clip0_201_3391">
<rect width="139" height="53" fill="white"/>
</clipPath>
</defs>
</svg>
